<svg id="icons" xmlns="http://www.w3.org/2000/svg" width="527.1441" height="537.8805" viewBox="0 0 527.1441 537.8805">
  <defs>
    <style>
      .cls-1 {
        fill: none;
      }

      .cls-2 {
        fill: #900;
      }

      .cls-3 {
        fill: #991402;
      }
    </style>
  </defs>
  <title>demolition</title>
  <g>
    <path class="cls-1" d="M99.96,56.08a23.7712,23.7712,0,0,0,14.24-4.72l174,236.56H258.36L81.408,47.36A24.1887,24.1887,0,0,0,99.96,56.08Z" transform="translate(-11.936 -0.072)"/>
    <path class="cls-1" d="M75.96,32.08a23.99,23.99,0,0,1,37.6081-19.768l.56.4a22.5286,22.5286,0,0,1,5.192,5.12c.16.248.4.568.56.808a24.1474,24.1474,0,0,1,4.08,13.44,24.0791,24.0791,0,0,1-24,24,24.2136,24.2136,0,0,1-18.552-8.72,10.1728,10.1728,0,0,0-.808-1.04,24.4891,24.4891,0,0,1-4.64-14.24Z" transform="translate(-11.936 -0.072)"/>
    <path class="cls-1" d="M123.96,32.08a24.0905,24.0905,0,0,0-4.088-13.44l198.16,269.28H288.2L114.2,51.36a23.8,23.8,0,0,0,9.76-19.28Z" transform="translate(-11.936 -0.072)"/>
    <g>
      <path class="cls-1" d="M131.96,368.08a56,56,0,1,1-56-56A56.01,56.01,0,0,1,131.96,368.08Z" transform="translate(-11.936 -0.072)"/>
      <path class="cls-1" d="M403.96,244.08a12.04,12.04,0,0,1,12-12,11.11,11.11,0,0,1,6,1.68,11.7812,11.7812,0,0,1,6.08,10.32v75.84H403.96V244.08Z" transform="translate(-11.936 -0.072)"/>
    </g>
    <path class="cls-2" d="M492.04,319.92v112H356.128v-112H492.04Z" transform="translate(-11.936 -0.072)"/>
    <path class="cls-2" d="M220.064,439.5826c.2466.8789-.0175-.9188,0,0l272,.3454a8,8,0,0,0,0-16l-272.0033.152c.99,2.7306,1.3447,5.5087.0033,8.072" transform="translate(-11.936 -0.072)"/>
    <path class="cls-3" d="M492.064,439.928a7.9927,7.9927,0,0,1-8-8V319.904a8,8,0,0,1,16,0V431.928a7.9927,7.9927,0,0,1-8,8Z" transform="translate(-11.936 -0.072)"/>
    <path class="cls-3" d="M348.08,319.904a7.9927,7.9927,0,0,1,8-8H492.064a8,8,0,1,1,0,16H356.08A7.9927,7.9927,0,0,1,348.08,319.904Z" transform="translate(-11.936 -0.072)"/>
    <path class="cls-2" d="M356.08,439.928a7.9927,7.9927,0,0,1-8-8V287.912a8,8,0,0,1,16,0V431.928a7.9927,7.9927,0,0,1-8,8Z" transform="translate(-11.936 -0.072)"/>
    <path class="cls-2" d="M236.192,287.912a7.9927,7.9927,0,0,1,8-8H356.08a8,8,0,0,1,0,16H244.184A7.991,7.991,0,0,1,236.192,287.912Z" transform="translate(-11.936 -0.072)"/>
    <path class="cls-2" d="M380.08,351.92a7.9927,7.9927,0,0,1,8-8h71.984a8,8,0,0,1,0,16H388.08A7.9927,7.9927,0,0,1,380.08,351.92Z" transform="translate(-11.936 -0.072)"/>
    <path class="cls-2" d="M380.08,375.912a7.9927,7.9927,0,0,1,8-8h71.984a8,8,0,0,1,0,16H388.08A7.9927,7.9927,0,0,1,380.08,375.912Z" transform="translate(-11.936 -0.072)"/>
    <path class="cls-2" d="M380.08,399.904a7.9927,7.9927,0,0,1,8-8h71.984a8,8,0,1,1,0,16H388.08A7.9927,7.9927,0,0,1,380.08,399.904Z" transform="translate(-11.936 -0.072)"/>
    <path class="cls-2" d="M258.4,295.912a7.9734,7.9734,0,0,1-6.456-3.256L74.184,51.032a8,8,0,0,1,12.888-9.48L264.84,283.176a7.995,7.995,0,0,1-6.44,12.736Z" transform="translate(-11.936 -0.072)"/>
    <path class="cls-2" d="M288.24,295.912a7.97,7.97,0,0,1-6.448-3.256L107.744,56.08a8,8,0,0,1,12.888-9.48L294.68,283.176a7.995,7.995,0,0,1-6.44,12.736Z" transform="translate(-11.936 -0.072)"/>
    <path class="cls-2" d="M318.088,296.072a7.97,7.97,0,0,1-6.448-3.256L112.84,22.6a8,8,0,0,1,12.888-9.48l198.8,270.216a7.995,7.995,0,0,1-6.44,12.736Z" transform="translate(-11.936 -0.072)"/>
    <path class="cls-2" d="M67.968,32.056A31.984,31.984,0,1,1,99.952,64.048,32.02,32.02,0,0,1,67.968,32.056Zm16,0A15.984,15.984,0,1,0,99.952,16.072,16.0059,16.0059,0,0,0,83.968,32.056Z" transform="translate(-11.936 -0.072)"/>
    <path class="cls-2" d="M420,320.072V244.096a8,8,0,0,1,16,0v75.976a8,8,0,0,1-16,0Z" transform="translate(-11.936 -0.072)"/>
    <path class="cls-2" d="M403.936,328.072a7.9979,7.9979,0,0,1-8-8l.048-75.976a7.9978,7.9978,0,0,1,8-8h.008a7.9961,7.9961,0,0,1,7.992,8l-.048,75.984a7.9961,7.9961,0,0,1-8,7.992Z" transform="translate(-11.936 -0.072)"/>
    <path class="cls-2" d="M411.264,238.552,108.864,18.784a7.9985,7.9985,0,0,1,9.4-12.944l302.4,219.768a7.9985,7.9985,0,1,1-9.4,12.944Z" transform="translate(-11.936 -0.072)"/>
    <path class="cls-2" d="M67.968,312.104V32.056a8,8,0,0,1,16,0V312.104a8,8,0,0,1-16,0Z" transform="translate(-11.936 -0.072)"/>
    <path class="cls-2" d="M11.936,368.104a64,64,0,1,1,64,64A64.0747,64.0747,0,0,1,11.936,368.104Zm16,0a48,48,0,1,0,48-48A48.0483,48.0483,0,0,0,27.936,368.104Z" transform="translate(-11.936 -0.072)"/>
    <path class="cls-2" d="M395.984,244.096a20.008,20.008,0,1,1,40.016,0,8,8,0,0,1-16,0,4.008,4.008,0,1,0-8.016,0,8,8,0,0,1-16,0Z" transform="translate(-11.936 -0.072)"/>
    <path class="cls-3" d="M91.712,32.056a8.0029,8.0029,0,0,1,8-8H99.8a8,8,0,1,1-8.088,8Z" transform="translate(-11.936 -0.072)"/>
  </g>
  <path class="cls-2" d="M454.5044,475.3125H265.5733a27.6481,27.6481,0,0,1,0,32.4286H454.5044a27.8309,27.8309,0,0,1,0-32.4286Z" transform="translate(-11.936 -0.072)"/>
  <path class="cls-2" d="M494.0259,445.0368q-1.4143-.0429-2.8291,0H230.4743a46.4684,46.4684,0,0,0-2.8289,92.8937q1.4139.043,2.8289,0H491.1968a46.4684,46.4684,0,1,0,2.8291-92.8937Zm-.3067,83.376q-1.2611.0434-2.5224,0H230.4743a36.9506,36.9506,0,0,1-2.5224-73.8582q1.2609-.0431,2.5224,0H491.1968a36.9506,36.9506,0,1,1,2.5224,73.8582Z" transform="translate(-11.936 -0.072)"/>
  <path class="cls-2" d="M510.232,476.6906l4.3066-4.3066-10.0774-10.25-4.8665,4.8234a25.8325,25.8325,0,0,0-6.6754-2.4979v-7.106H478.6216v7.709a23.2524,23.2524,0,0,0-6.0725,2.67l-5.4264-5.4264L457.0454,472.384l5.4692,5.297a23.5249,23.5249,0,0,0-2.627,6.0291h-7.6228v14.5136h7.2782a24.82,24.82,0,0,0,2.4979,6.4168l-4.9955,5.0387,10.0773,10.0775,4.6512-4.7805a25.1955,25.1955,0,0,0,6.8477,3.1009v6.1584h14.2977v-5.8569a24.0812,24.0812,0,0,0,7.4937-2.9285l4.0482,4.3066,10.0774-9.9913-4.0052-4.0052a26.4111,26.4111,0,0,0,3.0578-7.5365h5.857V483.71h-5.9863A27.3925,27.3925,0,0,0,510.232,476.6906Z" transform="translate(-11.936 -0.072)"/>
  <path class="cls-2" d="M260.5346,498.2237h6.503V483.71h-6.8045a27.9084,27.9084,0,0,0-2.9284-6.5458l4.9524-4.78-10.2067-10.25-5.1248,5.0818a28.9818,28.9818,0,0,0-6.4168-2.5841v-7.2782h-14.298v7.2782a26.1,26.1,0,0,0-6.3737,2.6272l-5.168-5.1249-9.9052,10.25,4.9527,4.78a27.9094,27.9094,0,0,0-2.9287,6.5458h-6.8043v14.5136H206.53a25.0226,25.0226,0,0,0,2.541,7.0195l-4.3066,4.3066,10.12,10.2069,4.3066-4.3066a24.8049,24.8049,0,0,0,7.1922,3.1007V524.58H240.724v-6.0293a24.683,24.683,0,0,0,7.1492-3.1007l4.3066,4.3066,9.862-10.379-4.3066-4.3067A24.6374,24.6374,0,0,0,260.5346,498.2237Z" transform="translate(-11.936 -0.072)"/>
  <path class="cls-2" d="M358.49,416.5975h-2.3152V281.84H243.0085L182.2444,418.5514v21.0909l177.7944-.2922A97.2387,97.2387,0,0,1,358.49,416.5975Zm-49.3285,1.752H204.3574l49.0571-118.4523h55.7469Zm30.97,0H325.08V300.1h15.1757Z" transform="translate(-11.936 -0.072)"/>
  <circle class="cls-2" cx="67.503" cy="368.9432" r="51.5741"/>
  <rect class="cls-2" x="192.4214" y="383.84" width="291.9787" height="50.5744"/>
</svg>
