<svg id="Layer_1" data-name="Layer 1" xmlns="http://www.w3.org/2000/svg" viewBox="0 0 98 56.8"><defs><style>.cls-1{fill:#900;}</style></defs><title>flat</title><path id="bulldozer" class="cls-1" d="M23.42,58.86a1.44,1.44,0,1,0,1.44,1.44A1.44,1.44,0,0,0,23.42,58.86Zm11.06-13a18.16,18.16,0,0,0-28.29,8.6H40.64A18,18,0,0,0,34.48,45.82ZM6.28,66.3a18.19,18.19,0,0,0,33.19,2.48,17.75,17.75,0,0,0,1.09-2.48Zm28.2-20.48a18.16,18.16,0,0,0-28.29,8.6H40.64A18,18,0,0,0,34.48,45.82Zm50,19.73a5,5,0,0,0-9.87.66,4.17,4.17,0,0,0,.06.71,5,5,0,0,0,9.86-.71C84.49,66,84.46,65.77,84.44,65.55Zm7.1-1a12.12,12.12,0,0,0-24.13,1.61,12.36,12.36,0,0,0,.13,1.73,12.12,12.12,0,0,0,24-3.34Zm-12,8.1a6.48,6.48,0,0,1-6.42-5.57,6.74,6.74,0,0,1-.07-.92A6.49,6.49,0,0,1,86,65.35a8.11,8.11,0,0,1,.05.86A6.48,6.48,0,0,1,79.53,72.7Zm17-15.84V48.54L84.3,41.11H82.71V33.92H82v-4H80.53v-3s.24-2.79,1.83-3.4l-.72-1.86c-2.81,1.07-3.1,5-3.11,5.2v3.08H77.06v4.06H75.8v7H71.39v-15h2l0-3.41h-29v3.19h3.54l-4.61,17-6.75.24A21.71,21.71,0,0,0,2.2,55.63H1v9.2H44.34a21,21,0,0,1-2,5.48H65c-.1-.68-.15-3.39-.15-4.1a14.71,14.71,0,0,1,29.29-2l4.89,0V56.86Zm-73.1,6A2.55,2.55,0,1,1,26,60.3,2.55,2.55,0,0,1,23.42,62.84ZM4.25,55.63a19.73,19.73,0,0,1,38.34,0ZM60.47,42.27H45.57l4.68-16.9H60.47Zm8.5,0H63.24V25.37H69Z" transform="translate(-1 -21.6)"/></svg>