<svg id="Layer_1" data-name="Layer 1" xmlns="http://www.w3.org/2000/svg" viewBox="0 0 98 50.02"><defs><style>.cls-1{fill:#900;}</style></defs><title>mixer</title><path id="mixer" class="cls-1" d="M61.47,65.46A4.62,4.62,0,0,0,53.92,69a4.6,4.6,0,0,0,4.62,4.63A4.63,4.63,0,0,0,62.72,71a4.54,4.54,0,0,0,.44-2A4.62,4.62,0,0,0,61.47,65.46Zm-.13,4.91a3.1,3.1,0,1,1-4.76-3.73A3.1,3.1,0,0,1,61.64,69,3.1,3.1,0,0,1,61.34,70.37ZM60.44,69a2,2,0,0,1-.18.82,1.94,1.94,0,0,1-1.72,1.08,1.9,1.9,0,0,1-1.71-1.08,1.77,1.77,0,0,1-.19-.82,1.9,1.9,0,0,1,3.8,0Zm-43.94-6a6,6,0,0,0-6,6,6.32,6.32,0,0,0,.31,1.91,6,6,0,1,0,5.67-7.88Zm3.36,7.11a3.55,3.55,0,0,1-6.73,0A3.83,3.83,0,0,1,13,69,3.54,3.54,0,1,1,20,69,3.83,3.83,0,0,1,19.86,70.17Zm56.6-4.71A4.63,4.63,0,0,0,68.9,69a4.63,4.63,0,0,0,4.63,4.63A4.63,4.63,0,0,0,77.71,71a4.54,4.54,0,0,0,.44-2A4.62,4.62,0,0,0,76.46,65.46Zm-.13,4.91a3.1,3.1,0,1,1-4.76-3.73A3.1,3.1,0,0,1,76.63,69,3.1,3.1,0,0,1,76.33,70.37ZM75.43,69a2,2,0,0,1-.18.82,1.91,1.91,0,0,1-3.44,0A1.9,1.9,0,1,1,75.43,69ZM18.74,69a2.35,2.35,0,0,1-.12.71,2.24,2.24,0,0,1-4.24,0,2.08,2.08,0,0,1-.12-.71,2.24,2.24,0,1,1,4.48,0Zm79.7-16.59L88.07,43.8l-3.84-14H83.05v-.27L86.29,25H73.76l-1,4.81H53.23L32.34,43.05l3,9.34-1.48.73-.71-2.38H29.26V64.41H26.43V38.12a1,1,0,0,0-1-1H6.65L1,47.72V70.58a1,1,0,0,0,1,1H8.87A8.05,8.05,0,1,1,24.55,69a7.83,7.83,0,0,1-.43,2.57h2.31a1,1,0,0,0,.39-.08v.08H53.15a6,6,0,1,1,10.79,0h4.11a6,6,0,1,1,10.78,0h8.74v-7.2H80.9V58.17H78.51l-1.57-6.69h2.59l15.21,4.33L99,59.17ZM10.19,50.74H3.63V48l4-7.77h2.54Zm13.16,0H12.81V40.2H23.35ZM46.47,64.41H37.22L34.78,56.2l1.57-.77,2,6.16,8.13-.25Zm22.92-6.24h-4.3l4.3-2.48ZM84.62,46.85,87,49H81.09Zm.16,4.63L88.89,51,92,53.52Z" transform="translate(-1 -24.99)"/></svg>