<svg id="Layer_1" data-name="Layer 1" xmlns="http://www.w3.org/2000/svg" viewBox="0 0 126.58 98.27"><defs><style>.cls-1,.cls-3{fill:#900;}.cls-2{fill:#fff;}.cls-3{stroke:#fff;stroke-miterlimit:10;stroke-width:0.27px;}</style></defs><title>mixer3</title><g id="FillOutline"><rect class="cls-1" x="95.96" y="21.91" width="8.71" height="47.91"/><polygon class="cls-1" points="104.67 21.91 115.56 21.91 122.09 28.45 122.09 52.4 104.67 58.94 104.67 21.91"/><rect class="cls-1" x="13.2" y="19.74" width="8.71" height="60.98"/><path class="cls-1" d="M51.54,59.8h-6A20.67,20.67,0,0,1,25.32,43.62h0a20.78,20.78,0,0,1-.35-6.9l4-33.54h39.2l3.94,33.54a20.72,20.72,0,0,1-.35,6.89h0A20.66,20.66,0,0,1,51.54,59.8Z" transform="translate(10.42 -0.86)"/><rect class="cls-1" x="6.67" y="76.36" width="84.93" height="8.71"/><circle class="cls-2" cx="100.31" cy="80.71" r="15.24"/><circle class="cls-1" cx="100.31" cy="80.71" r="6.53"/><rect class="cls-1" x="30.62" y="30.62" width="56.62" height="8.71"/><rect class="cls-1" x="30.62" y="30.62" width="56.62" height="8.71"/><polygon class="cls-1" points="78.54 2.31 39.34 2.31 38.31 11.03 79.56 11.03 78.54 2.31"/><polygon class="cls-1" points="122.09 28.45 115.56 21.91 104.67 21.91 104.67 39.34 111.2 39.34 111.2 45.87 115.56 45.87 115.56 39.34 122.09 39.34 122.09 28.45"/><path class="cls-3" d="M107.32,81.58A17.44,17.44,0,0,0,96.43,65.44V61.3l16-6a2.19,2.19,0,0,0,1.41-2v-24a2.17,2.17,0,0,0-.64-1.54l-6.53-6.53a2.17,2.17,0,0,0-1.54-.64H92.07V16.24H87.72V20.6H85.54a2.18,2.18,0,0,0-2.18,2.18V33.67H79V31.49a2.18,2.18,0,0,0-2.17-2.18H73.38L70.28,2.92A2.18,2.18,0,0,0,68.12,1H28.92a2.18,2.18,0,0,0-2.17,1.92l-3.1,26.39H20.2A2.18,2.18,0,0,0,18,31.49v2.18H13.67V20.6a2.18,2.18,0,0,0-2.18-2.18H9.32V14.07H5v4.35H2.78A2.19,2.19,0,0,0,.6,20.6V33.67H-5.93V20.6h-4.35V51.09h4.35V38H.6V75H-3.75a2.19,2.19,0,0,0-2.18,2.18V79.4h-4.35v4.36h4.35v2.17a2.18,2.18,0,0,0,2.18,2.18H5v6.53H-5.93V99H116V94.64H101.38A17.37,17.37,0,0,0,107.32,81.58Zm-4.36,0A13.07,13.07,0,1,1,89.89,68.51,13.07,13.07,0,0,1,103,81.58Zm6.53-29.82-13.06,4.9V42.38h4.35v4.35h4.36V42.38h4.35Zm0-21.55V38H96.43V25h7.81ZM87.72,25h4.35v39.2H87.72ZM66.18,5.36l.51,4.35H30.34l.51-4.35ZM29.83,14.07H67.2L69,29.31H28Zm-7.45,19.6H74.65V38H22.38Zm47.34,8.71c0,.25-.08.51-.13.77A18.38,18.38,0,0,1,51.54,57.62h-6a18.37,18.37,0,0,1-18-14.47c-.06-.26-.1-.52-.14-.77ZM18,38V40.2a2.18,2.18,0,0,0,2.17,2.18h2.69c.08.57.18,1.15.3,1.71A22.72,22.72,0,0,0,45.49,62h6a22.71,22.71,0,0,0,22.3-17.89q.18-.86.3-1.71h2.69A2.18,2.18,0,0,0,79,40.2V38h4.36V65.44A17.51,17.51,0,0,0,73.75,75H13.67V38ZM5,22.78H9.32V75H5ZM-1.57,79.4H72.62a15.92,15.92,0,0,0,0,4.36H-1.57ZM9.32,94.64V88.11H73.75a17.45,17.45,0,0,0,4.66,6.53Z" transform="translate(10.42 -0.86)"/><path class="cls-1" d="M81.18,81.58a8.71,8.71,0,1,0,8.71-8.71A8.71,8.71,0,0,0,81.18,81.58Zm13.07,0a4.36,4.36,0,1,1-4.36-4.36A4.36,4.36,0,0,1,94.25,81.58Z" transform="translate(10.42 -0.86)"/></g></svg>