<svg id="Layer_1" data-name="Layer 1" xmlns="http://www.w3.org/2000/svg" viewBox="0 0 465 361"><defs><style>.cls-1,.cls-3{fill:#900;}.cls-2{fill:#fff;}.cls-3{stroke:#fff;stroke-miterlimit:10;}</style></defs><title>mixer2</title><g id="FillOutline"><rect class="cls-1" x="352.5" y="80.5" width="32" height="176"/><polygon class="cls-1" points="384.5 80.5 424.5 80.5 448.5 104.5 448.5 192.5 384.5 216.5 384.5 80.5"/><rect class="cls-1" x="48.5" y="72.5" width="32" height="224"/><path class="cls-1" d="M259.11,352H236.89a75.91,75.91,0,0,1-74.1-59.44h0a76.25,76.25,0,0,1-1.29-25.34L176,144H320l14.5,123.2a76.27,76.27,0,0,1-1.29,25.34h0A75.93,75.93,0,0,1,259.11,352Z" transform="translate(-31.5 -135.5)"/><rect class="cls-1" x="24.5" y="280.5" width="312" height="32"/><circle class="cls-2" cx="368.5" cy="296.5" r="56"/><circle class="cls-1" cx="368.5" cy="296.5" r="24"/><rect class="cls-1" x="112.5" y="112.5" width="208" height="32"/><rect class="cls-1" x="112.5" y="112.5" width="208" height="32"/><polygon class="cls-1" points="288.5 8.5 144.5 8.5 140.73 40.5 292.27 40.5 288.5 8.5"/><polygon class="cls-1" points="448.5 104.5 424.5 80.5 384.5 80.5 384.5 144.5 408.5 144.5 408.5 168.5 424.5 168.5 424.5 144.5 448.5 144.5 448.5 104.5"/><path class="cls-3" d="M464,432a64.08,64.08,0,0,0-40-59.29v-15.2l58.82-22.05A8,8,0,0,0,488,328V240a8,8,0,0,0-2.34-5.66l-24-24A8,8,0,0,0,456,208H408V192H392v16h-8a8,8,0,0,0-8,8v40H360v-8a8,8,0,0,0-8-8H339.35l-11.41-96.94A8,8,0,0,0,320,136H176a8,8,0,0,0-7.94,7.06L156.65,240H144a8,8,0,0,0-8,8v8H120V208a8,8,0,0,0-8-8h-8V184H88v16H80a8,8,0,0,0-8,8v48H48V208H32V320H48V272H72V408H56a8,8,0,0,0-8,8v8H32v16H48v8a8,8,0,0,0,8,8H88v24H48v16H496V480H442.19A63.8,63.8,0,0,0,464,432Zm-16,0a48,48,0,1,1-48-48A48,48,0,0,1,448,432Zm24-109.54-48,18V288h16v16h16V288h16Zm0-79.15V272H424V224h28.69ZM392,224h16V368H392Zm-79.12-72,1.89,16H181.23l1.89-16ZM179.35,184h137.3l6.59,56H172.8ZM152,256H344v16H152Zm173.9,32c-.16.94-.29,1.9-.5,2.82A67.51,67.51,0,0,1,259.11,344H236.89a67.51,67.51,0,0,1-66.29-53.17c-.21-.93-.34-1.89-.5-2.83ZM136,272v8a8,8,0,0,0,8,8h9.86c.3,2.11.66,4.22,1.12,6.3A83.4,83.4,0,0,0,236.89,360h22.22A83.4,83.4,0,0,0,341,294.29c.46-2.08.8-4.19,1.12-6.29H352a8,8,0,0,0,8-8v-8h16V372.71A64.32,64.32,0,0,0,340.71,408H120V272ZM88,216h16V408H88ZM64,424H336.55a58.72,58.72,0,0,0,0,16H64Zm40,56V456H340.71a64.23,64.23,0,0,0,17.1,24Z" transform="translate(-31.5 -135.5)"/><path class="cls-1" d="M368,432a32,32,0,1,0,32-32A32,32,0,0,0,368,432Zm48,0a16,16,0,1,1-16-16A16,16,0,0,1,416,432Z" transform="translate(-31.5 -135.5)"/></g></svg>