<svg id="Capa_1" data-name="Capa 1" xmlns="http://www.w3.org/2000/svg" viewBox="0 0 372.24 480.83"><defs><style>.cls-1{fill:#900;}</style></defs><title>seal_coating</title><polygon class="cls-1" points="344.2 443.12 351.38 471.4 358.82 443.12 37.79 443.12 9.2 443.12 0 480.83 372.24 480.83 358.82 443.12 344.2 443.12"/><path class="cls-1" d="M300,43.87a18.86,18.86,0,1,0-37.71,0V468.13H300Z" transform="translate(-96.18 -25.01)"/><path class="cls-1" d="M428.26,468.13H134l-7.19,28.29H435.45ZM141.3,483a5.26,5.26,0,1,1,5.25-5.26A5.25,5.25,0,0,1,141.3,483Zm274.12,1.27a5.8,5.8,0,1,1,5.81-5.8A5.79,5.79,0,0,1,415.42,484.22Z" transform="translate(-96.18 -25.01)"/></svg>