<svg id="Layer_1" data-name="Layer 1" xmlns="http://www.w3.org/2000/svg" viewBox="0 0 98 66.45"><defs><style>.cls-1{fill:#900;}</style></defs><title>sitePrep</title><path id="Excavator" class="cls-1" d="M88.21,61.65H27.67a10.79,10.79,0,1,0,0,21.57H88.21a10.79,10.79,0,1,0,0-21.57Zm0,19.36H27.67a8.58,8.58,0,1,1,0-17.15H88.21a8.58,8.58,0,1,1,0,17.15Zm-9.73-8.57a6.35,6.35,0,0,0,1.21,3.77H35.82a6.42,6.42,0,0,0,0-7.53H79.69A6.35,6.35,0,0,0,78.48,72.44ZM8.06,35.78a1.42,1.42,0,1,1-1.42-1.41A1.42,1.42,0,0,1,8.06,35.78Zm72.56,3.08h-2.2V28H76.71c0-3.77.3-8.39,2.16-9.23l-.9-2C75,18.1,74.45,22.87,74.51,28H73V38.86H68.08v-20H49.81L40,39.15v6.62l-5.15,0h0L17,19.83,6.68,32H6.62a3.91,3.91,0,0,0-2.75,6.71C3.5,40.31,2,46.4,1.16,49.67.18,53.46,4,55.43,4,55.43H22.05L9.41,38.7a4,4,0,0,0,1.14-2.76,3.65,3.65,0,0,0-.35-1.58l3.6-4.64,9.31,14.16-.47.37,7.08,10.82h-.58v4.35h58v-14Zm-74,.1a3,3,0,1,1,3.05-3A3,3,0,0,1,6.63,39ZM34.85,58.12l-10.1-15.5-.58.44-9.5-14.48,1.79-2.31,18.39,28.8Zm25.64-19H43.57l7.92-17.58h9Zm5,0H63.06V21.57h2.45ZM34.65,74A5.72,5.72,0,0,1,34,75.59l1,1L32.71,79l-1-1a5.73,5.73,0,0,1-1.66.72v1.4H26.72v-1.4A5.76,5.76,0,0,1,25.05,78l-1,1L21.7,76.63l1-1A5.81,5.81,0,0,1,22.11,74H20.59V70.63h1.58a6.48,6.48,0,0,1,.68-1.52L21.7,68,24,65.62l1.2,1.19a6.06,6.06,0,0,1,1.48-.61V64.51H30V66.2a6.73,6.73,0,0,1,1.49.6l1.19-1.18L35.05,68,33.9,69.11a6.48,6.48,0,0,1,.68,1.52h1.58V74Zm58.76,0a6.13,6.13,0,0,1-.71,1.75l.93.93L91.29,79,90.35,78a5.59,5.59,0,0,1-1.74.68v1.36H85.29V78.61a5.85,5.85,0,0,1-1.59-.72L82.62,79l-2.34-2.34,1.16-1.17A5.76,5.76,0,0,1,80.86,74H79.17V70.63h1.77a5.46,5.46,0,0,1,.61-1.4L80.28,68l2.34-2.34,1.26,1.26a5.4,5.4,0,0,1,1.41-.62V64.51h3.32v1.65a6,6,0,0,1,1.55.58l1.13-1.12L93.63,68l-1,1a6.36,6.36,0,0,1,.75,1.63h1.39V74Z" transform="translate(-1 -16.78)"/></svg>