<svg id="Layer_1" data-name="Layer 1" xmlns="http://www.w3.org/2000/svg" viewBox="0 0 98 54.66"><defs><style>.cls-1{fill:#900;}</style></defs><title>subDivision</title><path class="cls-1" d="M30.33,37.27l19.3-9.48,20.07,9.5a2.34,2.34,0,0,0,1,.23,2.42,2.42,0,0,0,1-4.62l-6-2.82V28a2.63,2.63,0,0,0-2.42-2.8A2.59,2.59,0,0,0,61,27.79L50.65,22.9a2.44,2.44,0,0,0-2.11,0l-20.35,10a2.42,2.42,0,1,0,2.14,4.35Z" transform="translate(-1 -22.67)"/><path class="cls-1" d="M93.57,48a1.59,1.59,0,0,0-2,.85L87,43.56A1.51,1.51,0,0,0,85.82,43l-13.9.51a1.49,1.49,0,0,0,.11,3l13.18-.48,8.86,10.34a1.62,1.62,0,0,0,.52.39,1.49,1.49,0,0,0,1.74-2.33L93.7,51.38l.52-1.16A1.61,1.61,0,0,0,93.57,48Z" transform="translate(-1 -22.67)"/><path class="cls-1" d="M4.82,56.78a1.62,1.62,0,0,0,.52-.39L14.2,46.05l13.18.48a1.49,1.49,0,0,0,.11-3L13.59,43a1.53,1.53,0,0,0-1.19.52L7.84,48.89a1.59,1.59,0,0,0-2-.85,1.62,1.62,0,0,0-.66,2.17l.52,1.17L3.08,54.45a1.49,1.49,0,0,0,1.74,2.33Z" transform="translate(-1 -22.67)"/><path class="cls-1" d="M86.41,67a2.48,2.48,0,0,0,.73-.93l4.72-10.55-7.28-8.34-11.2.36L68.77,57.84a4.06,4.06,0,0,0-.38,1.81c-1.2-.28-2.39-.54-3.54-.75a4.08,4.08,0,0,0,1-2.62V37.45L49.44,29.88,33,37.86V56.28a6.4,6.4,0,0,0,.67,3c-.89.18-1.8.39-2.72.61a3.54,3.54,0,0,0-.32-2L26,47.52l-11.21-.35L7.55,55.51l4.71,10.55a2.57,2.57,0,0,0,.82,1A46.8,46.8,0,0,0,1,77.33H53.52c-1.08-2.52-3.65-6.19-9.75-8.64s-6.6-10-6.6-10V47.88a.81.81,0,0,1,.81-.81h7.18a.81.81,0,0,1,.81.81v9.84s-.8,2.67,8.41,7.21c5.3,2.61,4.2,8.78,3,12.4H99A58.64,58.64,0,0,0,86.41,67ZM15,65l-2.48-5.54,2.5-1.11,2.47,5.53Zm3.65-1.63-2.48-5.54,2.5-1.11,2.47,5.53ZM23.8,62l-2.52-5.64a.49.49,0,0,1,.25-.65l4-1.8a.5.5,0,0,1,.66.25L29,60.4C27.29,60.86,25.55,61.39,23.8,62ZM54.45,56.5H50V46.61h4.45Zm6.51,0H56.51V46.61H61Zm17.17-.12-2.44,5.46c-1.75-.64-3.48-1.18-5.18-1.65l2.69-6a.49.49,0,0,1,.66-.25l4,1.79A.51.51,0,0,1,78.13,56.38Zm.1,5.84,2.47-5.54,2.5,1.11-2.48,5.54Zm3.65,1.63,2.47-5.54,2.49,1.12L84.37,65Z" transform="translate(-1 -22.67)"/></svg>