<svg id="Layer_1" data-name="Layer 1" xmlns="http://www.w3.org/2000/svg" viewBox="0 0 95.19 98"><defs><style>.cls-1{fill:#900;fill-rule:evenodd;}</style></defs><title>utilities</title><path id="screw_wrench" class="cls-1" d="M95.78,15.67A23.7,23.7,0,0,1,62.19,45.4l-6.55,7.16,4.67,4.69,2.8-2.79a3.65,3.65,0,0,1,5.17,0L96,82.41a3.65,3.65,0,0,1,0,5.17L85.65,97.93a3.65,3.65,0,0,1-5.17,0L52.76,70a3.65,3.65,0,0,1,0-5.17l2.55-2.56-4.46-4.46L19.5,92A7.33,7.33,0,0,1,9.15,92L6.57,89.45a7.32,7.32,0,0,1,0-10.35L42.28,49.19,18.56,25.41H11.07L2.41,11.47l7-7L23.64,13.2l.1,7.33,24,24.09,7-5.84a23.73,23.73,0,0,1,28.11-36L65.76,19.61,78.69,32.54ZM15.16,82.75a3.66,3.66,0,1,0,0,5.17A3.66,3.66,0,0,0,15.16,82.75Z" transform="translate(-2.41 -1)"/></svg>